<svg xmlns="http://www.w3.org/2000/svg" xmlns:xlink="http://www.w3.org/1999/xlink" viewBox="0 0 528.8 413.39"><defs><style>.cls-1{fill:#f37457;}.cls-2{fill:none;}.cls-3{clip-path:url(#clip-path);}.cls-4{fill:#4e4e4e;}.cls-5{fill:#333;}.cls-6{fill:#f6b59f;}.cls-7{fill:#ce8474;}.cls-8{fill:#f8dcb4;}.cls-9{fill:#010101;}.cls-10{fill:#5f5e5e;}.cls-11{fill:#a15d5d;}.cls-12{clip-path:url(#clip-path-2);}.cls-13{fill:#fff;}.cls-14{fill:#8f2531;}.cls-15{fill:#f3f3f3;}.cls-16{fill:#9a8365;}.cls-17{fill:#736458;}.cls-18{fill:#1d77aa;}.cls-19{fill:#8d633a;}.cls-20{fill:#a56e3f;}.cls-21{fill:#784f2d;}</style><clipPath id="clip-path"><path class="cls-1" d="M528.75,58.59a70.48,70.48,0,0,0-1.44-10.54,56,56,0,0,0-4.65-11.54,34.53,34.53,0,0,0-12.35-12.34,25.57,25.57,0,0,0-12.79-4.09,26,26,0,0,0-13.72.62,34.28,34.28,0,0,0-15.19,8.85,600.24,600.24,0,0,0-85,82.82q8.54-17,18-33.45,6-10.41,12.32-20.61A25.66,25.66,0,0,0,418,45.52a26.18,26.18,0,0,0-.61-13.73q-1.74-4.11-3.47-8.22A26,26,0,0,0,405,13.92a17.13,17.13,0,0,0-7.59-4.43,26,26,0,0,0-13.26-3,36.5,36.5,0,0,0-22.35,8.29A25.77,25.77,0,0,0,354.69,8a17.06,17.06,0,0,0-7.59-4.42,25.85,25.85,0,0,0-13.26-3A37,37,0,0,0,309.51,10.7q-4.69,4.37-9.32,8.81a40.9,40.9,0,0,0-9.76-8.78,25.7,25.7,0,0,0-12.8-4.08,26.14,26.14,0,0,0-13.72.61C251.67,12,240.23,17.55,229.66,25.35q-6.37,4.71-12.45,9.71A26.22,26.22,0,0,0,216,25.29c-1.16-2.74-2.31-5.48-3.47-8.23a26,26,0,0,0-8.86-9.65A17.28,17.28,0,0,0,196.11,3a26,26,0,0,0-13.26-3C173.76.43,165,3.48,158.51,10.1A941.25,941.25,0,0,0,94.33,82.46a1027.1,1027.1,0,0,0-61.56,85.21Q18,190.61,4.63,214.37a35.86,35.86,0,0,0-3.47,26.52,25.86,25.86,0,0,0,6.16,11.7A25.88,25.88,0,0,0,17,261.45a39.34,39.34,0,0,0,17.39,4.77q-2.37,8-4.6,16A26,26,0,0,0,29.14,296a25.57,25.57,0,0,0,4.09,12.79q2.69,3.5,5.38,7a25.74,25.74,0,0,0,11.07,7.11,17.12,17.12,0,0,0,8.69,2.35,25.66,25.66,0,0,0,6.8.62q-3.11,10.71-5.62,21.59c-2.23,9.74-3.62,19.47-.53,29.25a41,41,0,0,0,17.49,22.84c5.24,3.34,12.4,5,18.53,5.13l.93,0a34.21,34.21,0,0,0,17.37-4.7,25.88,25.88,0,0,0,9.65-8.86c4.07-5.26,6.84-11.38,10-17.25q3.74-7.05,7.52-14.08,3.19-5.94,6.42-11.84c-.1.87-.22,1.74-.31,2.61l1.23,9.14A25.94,25.94,0,0,0,154,371.36a17.37,17.37,0,0,0,6.17,6.17,26,26,0,0,0,11.71,6.16,40.92,40.92,0,0,0,18.29,0,26,26,0,0,0,11.71-6.16,26.07,26.07,0,0,0,8.86-9.66c14.2-31.84,29.4-63.24,45.92-93.94.61-1.13,1.23-2.24,1.84-3.37-.87,4.69-1.71,9.38-2.49,14.09q-1.59,9.63-2.9,19.31c-.78,5.74-1.56,11.48-2.27,17.22a81.66,81.66,0,0,0-1,9.21,53.48,53.48,0,0,0,1.52,12.48c1.6,6.94,5.33,12.55,9.95,17.79,7,7.89,18.62,12.69,29.13,12.18,11.09-.53,22.14-5.07,29.44-13.68,6.11-7.2,9-12.52,12.24-21.52,4.19-11.55,8.41-23.05,13.1-34.4A605.92,605.92,0,0,1,401.5,201.55q8.16-11.9,16.89-23.37a605.26,605.26,0,0,1,71.92-77.1,28.79,28.79,0,0,0,11.31-1.19c8.55-2.77,15.94-7.92,20.57-15.82a48.82,48.82,0,0,0,6.6-23.72A14.78,14.78,0,0,0,528.75,58.59Z"/></clipPath><clipPath id="clip-path-2"><path class="cls-2" d="M221.07,240.39c0,7.19-12.41,22.25-24.61,22.25s-24.6-15.06-24.6-22.25,12.4-2.1,24.6-2.1S221.07,233.21,221.07,240.39Z"/></clipPath></defs><g id="Layer_2" data-name="Layer 2"><g id="Layer_1-2" data-name="Layer 1"><path class="cls-1" d="M528.75,58.59a70.48,70.48,0,0,0-1.44-10.54,56,56,0,0,0-4.65-11.54,34.53,34.53,0,0,0-12.35-12.34,25.57,25.57,0,0,0-12.79-4.09,26,26,0,0,0-13.72.62,34.28,34.28,0,0,0-15.19,8.85,600.24,600.24,0,0,0-85,82.82q8.54-17,18-33.45,6-10.41,12.32-20.61A25.66,25.66,0,0,0,418,45.52a26.18,26.18,0,0,0-.61-13.73q-1.74-4.11-3.47-8.22A26,26,0,0,0,405,13.92a17.13,17.13,0,0,0-7.59-4.43,26,26,0,0,0-13.26-3,36.5,36.5,0,0,0-22.35,8.29A25.77,25.77,0,0,0,354.69,8a17.06,17.06,0,0,0-7.59-4.42,25.85,25.85,0,0,0-13.26-3A37,37,0,0,0,309.51,10.7q-4.69,4.37-9.32,8.81a40.9,40.9,0,0,0-9.76-8.78,25.7,25.7,0,0,0-12.8-4.08,26.14,26.14,0,0,0-13.72.61C251.67,12,240.23,17.55,229.66,25.35q-6.37,4.71-12.45,9.71A26.22,26.22,0,0,0,216,25.29c-1.16-2.74-2.31-5.48-3.47-8.23a26,26,0,0,0-8.86-9.65A17.28,17.28,0,0,0,196.11,3a26,26,0,0,0-13.26-3C173.76.43,165,3.48,158.51,10.1A941.25,941.25,0,0,0,94.33,82.46a1027.1,1027.1,0,0,0-61.56,85.21Q18,190.61,4.63,214.37a35.86,35.86,0,0,0-3.47,26.52,25.86,25.86,0,0,0,6.16,11.7A25.88,25.88,0,0,0,17,261.45a39.34,39.34,0,0,0,17.39,4.77q-2.37,8-4.6,16A26,26,0,0,0,29.14,296a25.57,25.57,0,0,0,4.09,12.79q2.69,3.5,5.38,7a25.74,25.74,0,0,0,11.07,7.11,17.12,17.12,0,0,0,8.69,2.35,25.66,25.66,0,0,0,6.8.62q-3.11,10.71-5.62,21.59c-2.23,9.74-3.62,19.47-.53,29.25a41,41,0,0,0,17.49,22.84c5.24,3.34,12.4,5,18.53,5.13l.93,0a34.21,34.21,0,0,0,17.37-4.7,25.88,25.88,0,0,0,9.65-8.86c4.07-5.26,6.84-11.38,10-17.25q3.74-7.05,7.52-14.08,3.19-5.94,6.42-11.84c-.1.87-.22,1.74-.31,2.61l1.23,9.14A25.94,25.94,0,0,0,154,371.36a17.37,17.37,0,0,0,6.17,6.17,26,26,0,0,0,11.71,6.16,40.92,40.92,0,0,0,18.29,0,26,26,0,0,0,11.71-6.16,26.07,26.07,0,0,0,8.86-9.66c14.2-31.84,29.4-63.24,45.92-93.94.61-1.13,1.23-2.24,1.84-3.37-.87,4.69-1.71,9.38-2.49,14.09q-1.59,9.63-2.9,19.31c-.78,5.74-1.56,11.48-2.27,17.22a81.66,81.66,0,0,0-1,9.21,53.48,53.48,0,0,0,1.52,12.48c1.6,6.94,5.33,12.55,9.95,17.79,7,7.89,18.62,12.69,29.13,12.18,11.09-.53,22.14-5.07,29.44-13.68,6.11-7.2,9-12.52,12.24-21.52,4.19-11.55,8.41-23.05,13.1-34.4A605.92,605.92,0,0,1,401.5,201.55q8.16-11.9,16.89-23.37a605.26,605.26,0,0,1,71.92-77.1,28.79,28.79,0,0,0,11.31-1.19c8.55-2.77,15.94-7.92,20.57-15.82a48.82,48.82,0,0,0,6.6-23.72A14.78,14.78,0,0,0,528.75,58.59Z"/><g class="cls-3"><ellipse class="cls-4" cx="200.36" cy="313.02" rx="87.43" ry="38.23"/><ellipse class="cls-5" cx="199.79" cy="313.5" rx="59" ry="30.49"/><path class="cls-6" d="M234.82,311.51,232.53,262H163.16l-2.28,49.28c-19.08,3.9-31.76,10.7-31.76,18.52,0,12.13,34.19,27,71.89,27s64.63-14.88,64.63-27C265.64,322.15,253.38,315.43,234.82,311.51Z"/><path class="cls-7" d="M230.36,309.44l1.27,9.28c1.14,5.86-10.2,13.88,8.35,11.61,14.08-1.72,55.28,17,56.94,22.85,2.52-10-38.71-39-59.72-41.8L235.06,270l-64.91-4.54-.15,9c20.51,17.47,35.14,28,44.43,25.37A12.64,12.64,0,0,1,230.36,309.44Z"/><path class="cls-8" d="M134.07,333.39c0-7.81,11.86-14.68,29.72-18.58l2.14-49.4-3.64-3.64-2.13,49.41c-17.86,3.9-29.72,10.77-29.72,18.58,0,4,3.51,9.39,9.45,14.81C136.18,340.43,134.07,336.5,134.07,333.39Z"/><path class="cls-9" d="M316.78,372.34c-10.13-16.7-29.49-45.72-69.18-55.73,0,0-13.69,23.94-46.7,24.36-35.13.46-48.45-26.81-48.45-26.81-37.7,8.78-58.79,78.43-70.19,96.11Z"/><path class="cls-9" d="M200.9,353.4c29.16,1.1,51.76-24.07,59.32-33.7q-6-1.89-12.62-3.5s-13.69,24.14-46.7,24.57c-35.13.45-48.45-27.12-48.45-27.12q-7.87,1.85-14.79,4.05C142.87,326.37,161.52,351.91,200.9,353.4Z"/><path class="cls-4" d="M156.37,413.39c-5.32-29.47-13.55-118.83-13.55-118.83-52.9,14.92-120.18,89.4-130.13,112Z"/><path class="cls-10" d="M115.44,313c1-15,17.89-27.61,45.78-33.84.09-.26.34-1.53.4-1.67C130.55,283.14,110,296.92,110,313c0,8.17,5.67,15.75,15.32,22a.59.59,0,0,0,.76-.9C121.89,329.52,114.94,321,115.44,313Z"/><path class="cls-4" d="M354.52,377.6c-11.27-22.59-49.49-67.59-95-83,0,0-13.05,49.29-20,78.76Z"/><ellipse class="cls-7" cx="267.84" cy="201.85" rx="24.58" ry="13.97" transform="translate(7.55 413.35) rotate(-76.1)"/><ellipse class="cls-6" cx="125.04" cy="204.05" rx="14.4" ry="27" transform="matrix(0.96, -0.29, 0.29, 0.96, -54.28, 45.57)"/><path class="cls-8" d="M113.08,210.09c-4.36-14.26-1.74-27.71,5.87-30,3.51-1.07,7.48.42,11.16,3.74-4.16-4.57-8.88-6.81-13-5.55-7.6,2.33-10.23,15.77-5.86,30,2.35,7.66,6.24,14,10.51,17.86A42.78,42.78,0,0,1,113.08,210.09Z"/><path class="cls-6" d="M193.63,78c-33.24,0-74.46,31.59-74.46,71.59,0,24.72,15.85,99.22,27.14,111.09,12.24,12.86,31.49,29.21,50.15,29.63,27.38.6,43.23-22.94,54.83-37.19,10.69-13.14,16.8-79.29,16.8-103.53C268.09,109.59,226.87,78,193.63,78Z"/><path class="cls-7" d="M193.63,78a57.72,57.72,0,0,0-6.65.4C218.34,81.24,254.25,107.87,257,144c1.86,24.16.86,90.6-8.78,104.52-10.47,15.1-24.47,39.79-51.81,41.29a35.34,35.34,0,0,1-6.8-.29,36.1,36.1,0,0,0,6.81.83c27.38.6,43.23-22.94,54.83-37.19C262,240,269,173.83,269,149.59,269,109.59,226.87,78,193.63,78Z"/><path class="cls-8" d="M201,288.49c-18.66-.41-37.91-16.76-50.15-29.63-11.29-11.87-27.14-86.37-27.14-111.08,0-29.63,22.61-54.63,47.84-65.62-27,9.83-52.38,36-52.38,67.43,0,24.72,15.85,99.22,27.14,111.09,12.24,12.86,31.49,29.21,50.15,29.63a44.39,44.39,0,0,0,19.85-4.17A44.12,44.12,0,0,1,201,288.49Z"/><path class="cls-7" d="M197.25,213.53c-7.16,0-13,2.55-13,5.69s5.81,5.69,13,5.69,13-2.55,13-5.69S204.41,213.53,197.25,213.53Z"/><path class="cls-11" d="M186.25,219.11c-2.26-1-4.57-.74-5.15.58s.77,3.2,3,4.2,4.57.75,5.15-.58S188.51,220.11,186.25,219.11Z"/><path class="cls-11" d="M207.27,219.11c-2.26,1-3.62,2.88-3,4.2s2.89,1.58,5.15.58,3.62-2.88,3-4.2S209.53,218.11,207.27,219.11Z"/><path class="cls-11" d="M186.56,221.41s9.65,10.88,21-.33A27.45,27.45,0,0,1,186.56,221.41Z"/><path class="cls-7" d="M221.16,241.81c-1.84-4.6-11.06,2.38-24.8,2.94s-24.63-9.52-24.25-4.59C173.25,255,182,267.6,199,266.22,212.68,265.1,223.33,247.24,221.16,241.81Z"/><g class="cls-12"><path class="cls-5" d="M196.46,238.29c-12.2,0-24.6-5.08-24.6,2.1s12.4,22.25,24.6,22.25,24.61-15.06,24.61-22.25S208.66,238.29,196.46,238.29Z"/><path class="cls-13" d="M171.51,243.11s25.91,7.12,49.54,0l.84-7.33H170.67Z"/><path class="cls-14" d="M197.46,253.83c-6.57,0-11.9,2-11.9,4.41s5.33,4.4,11.9,4.4,11.9-2,11.9-4.4S204,253.83,197.46,253.83Z"/></g><path class="cls-7" d="M266.62,136.55C259,102.93,223.16,78,193.63,78c-15.2,0-32.06,6.61-45.9,17.6a40.55,40.55,0,0,0-4.13,9c8.78,34.06,61.43,18.61,86.27,10.74C249.94,108.93,262.52,128.7,266.62,136.55Z"/><path class="cls-7" d="M119.38,192.57c-3.18,1-4.09,7.07-2,13.5s6.32,10.81,9.51,9.79S122.56,191.55,119.38,192.57Z"/><path class="cls-11" d="M272.44,190.9c3.18,1,4.08,7.07,2,13.5s-6.33,10.81-9.51,9.79S269.25,189.88,272.44,190.9Z"/><path class="cls-7" d="M162.05,246.7a21.78,21.78,0,0,1,2.17-12C156.89,243.08,162.86,253.35,162.05,246.7Z"/><path class="cls-7" d="M225.23,233.82s4.47,3.6,3.82,8.62S235.85,239.09,225.23,233.82Z"/><path class="cls-5" d="M289.33,308.31s-6,21.47-17.09,28.91,9.95,5,25-22.46A40.18,40.18,0,0,0,289.33,308.31Z"/><polygon class="cls-5" points="268.29 362.21 273.54 338.73 269.4 339.95 265.25 362.21 268.29 362.21"/><path class="cls-15" d="M255.36,362.21l5.27-24.4a2.27,2.27,0,1,0-4.47-.81l-5.73,25.21Z"/><path class="cls-15" d="M140.17,362.21h4.6l-3.18-23a2.27,2.27,0,0,0-4.47.83Z"/><path class="cls-5" d="M330.14,362.21h8.68c-8.37-17.67-22.92-36.8-48-52.36A134.69,134.69,0,0,1,330.14,362.21Z"/><path class="cls-10" d="M61.75,366.48c7.15-17.33,20.65-36.14,46.35-51.91C77.86,328.78,62,348.79,53.55,366.06Z"/><path class="cls-6" d="M263.49,165.2c-.29,11.93-15.35,24.65-69.64,21.6-38.4-2.15-69.64-9.67-69.64-21.6s-6.51-30.75,69.64-23.33C255,147.84,264.07,141.8,263.49,165.2Z"/><path class="cls-16" d="M137.65,166c-.86,1.55,2.16,6.39,3.54,5.27,5.93-4.84,16.66-11.09,32.59-11.2C197.91,159.91,153.37,137.83,137.65,166Z"/><path class="cls-16" d="M218,155.87c15.77,3.6,25,12.23,29.64,18.26,1,1.33,4.87-2.74,4.4-4.36C243,138.44,194.4,150.49,218,155.87Z"/><path class="cls-6" d="M249.77,183.92c0,13.15-24.7,23.82-55.16,23.82s-55.16-10.67-55.16-23.82,6.55-24.71,55.16-23.82S249.77,170.77,249.77,183.92Z"/><path class="cls-17" d="M160,170.14c-6.74,0-13.58,5.39-12.2,11.68s3.52,9.7,12.11,8.16c8.14-1.47,11-5,12.28-8.16C174.62,175.89,166.73,170.14,160,170.14Z"/><path class="cls-13" d="M160.14,170.14c-7.51-.15-15.16,5.76-13.61,12.47s4.15,9.28,13.86,8.71c8.15-.48,8.4-3.24,12.77-8.84C176.78,177.84,167.16,170.29,160.14,170.14Z"/><path class="cls-18" d="M160.47,172.92c-4.45,0-8.07,4.06-8.07,9.05s3.62,9,8.07,9,8.06-4.06,8.06-9S164.91,172.92,160.47,172.92Z"/><ellipse class="cls-13" cx="164.5" cy="181.08" rx="1.92" ry="2.93"/><path class="cls-7" d="M159.85,175.78c-4.93,0-11.93,1.68-15.3,4.67.21-6,8.3-10.84,15.3-10.84,6.75,0,13,4.37,14,10.15C171,176.85,165.15,175.78,159.85,175.78Z"/><path class="cls-17" d="M175.72,180.23l-2.64-.1s-14.28-2.41-28,.32l-5.23-2.14a29.07,29.07,0,0,0,6-2.56C161,170.57,175.72,180.23,175.72,180.23Z"/><path class="cls-13" d="M225.17,170.14c7.52-.15,15.17,5.76,13.62,12.47s-4.15,9.28-13.86,8.71c-8.15-.48-8.4-3.24-12.77-8.84C208.54,177.84,218.16,170.29,225.17,170.14Z"/><path class="cls-18" d="M224.85,172.92c4.45,0,8.07,4.06,8.07,9.05s-3.62,9-8.07,9-8.06-4.06-8.06-9S220.41,172.92,224.85,172.92Z"/><ellipse class="cls-13" cx="228.24" cy="182.06" rx="1.92" ry="2.93"/><path class="cls-7" d="M225.47,175.78c4.93,0,11.93,1.68,15.3,4.67-.21-6-8.3-10.84-15.3-10.84-6.75,0-13,4.37-14,10.15C214.36,176.85,220.17,175.78,225.47,175.78Z"/><path class="cls-17" d="M209.6,180.23l2.64-.1s14.28-2.41,28,.32l5.23-2.14a29.07,29.07,0,0,1-6-2.56C224.29,170.57,209.6,180.23,209.6,180.23Z"/><path class="cls-19" d="M214,96.87c14.19,7.27,10.8,18.78,23.86,28.11,28.74,20.53,18.61,33.38,21.83,53.5,4.17,26,13-8.3,11.44-38.55-1.14-22.49-7-47.8-26.89-54.26-4.79-1.56-8.2-1.25-13.8-2.82C198.34,73.86,200.68,90.07,214,96.87Z"/><path class="cls-19" d="M191.55,95.05s-42.08,8.27-60.48,35.38c-3.6,5.31-7.55,14.5-12.88,17.81-4.64,2.88,6-56.81,47.7-68S191.55,95.05,191.55,95.05Z"/><path class="cls-20" d="M173.94,81c7.43-1.58,13-2.1,17.17-1.88-3.78-2.22-11.27-2.65-25.22,1.11-41.68,11.23-53.71,13-48.59,69.62C117.3,149.82,131.77,90,173.94,81Z"/><path class="cls-21" d="M271.08,138.81c-1.14-22.5-10-47.81-29.84-54.27-4.79-1.56-17.75-1.18-12.82-.24,20.46,3.87,32.14,34.55,35.85,56.74C268.42,165.82,272.51,167.08,271.08,138.81Z"/><path class="cls-19" d="M174.36,116.06a34.57,34.57,0,0,1-26.85-8.3C135.43,97.11,114,78.46,163.74,51.4c79.66-43.3,112.07,84,94.42,85C241.31,137.38,243.22,108.26,174.36,116.06Z"/><path class="cls-20" d="M195.34,111.52c-12.67-11.94-35.13-32.79,12.25-67.59a49,49,0,0,0-10.9-1.49C151.86,73.3,172.52,94.67,184.28,107a33.28,33.28,0,0,0,11,7.71q2.12,0,4.11,0A33.93,33.93,0,0,1,195.34,111.52Z"/><path class="cls-20" d="M181.11,54.63a90.27,90.27,0,0,1,7.29-8.49,78.68,78.68,0,0,0-16.87,12.72c-41.24,40-17.66,51-3.34,57.93.95.45,3.72-1.06,4.7-.7C160.46,106.14,153.08,91.46,181.11,54.63Z"/><path class="cls-20" d="M171.56,58.56c26.56-14.44,47.87-9.9,63.83,2.6-16.54-17.52-40.48-26.71-71.65-9.76C114,78.46,135.43,97.11,147.51,107.76c.41.36.82.7,1.24,1C138,97.68,130.23,81,171.56,58.56Z"/><path class="cls-7" d="M205.74,187.29c2.3-14.26-17.87,12.55,3.5,22.82C209.24,210.11,203.45,201.55,205.74,187.29Z"/></g></g></g></svg>